<svg width="67" height="62" viewBox="0 0 67 62" fill="none" xmlns="http://www.w3.org/2000/svg">
<path d="M40.8281 50.9437H11.0707C10.0238 50.9437 9.17322 50.1058 9.17322 49.0746V35.0625C9.17322 29.0812 14.1197 24.2086 20.1916 24.2086H40.8281C41.875 24.2086 42.7256 25.0465 42.7256 26.0777V49.0746C42.7256 50.1058 41.875 50.9437 40.8281 50.9437ZM12.9681 47.2054H38.9176V27.9597H20.1785C16.2004 27.9597 12.9681 31.1437 12.9681 35.0625V47.2054Z" fill="#2D527C"/>
<path d="M60.4439 34.2633H6.55605C2.94434 34.2633 0 31.3629 0 27.7922V21.9785C0 18.4207 2.94434 15.5203 6.55605 15.5203H20.1262C21.173 15.5203 22.0236 16.3582 22.0236 17.3894C22.0236 18.4207 21.173 19.2586 20.1262 19.2586H6.55605C5.03809 19.2586 3.79492 20.4832 3.79492 21.9785V27.7922C3.79492 29.2875 5.03809 30.5121 6.55605 30.5121H60.4309C61.9488 30.5121 63.192 29.2875 63.192 27.7922V21.9785C63.192 20.4832 61.9488 19.2586 60.4309 19.2586H33.5C32.4531 19.2586 31.6025 18.4207 31.6025 17.3894C31.6025 16.3582 32.4531 15.5203 33.5 15.5203H60.4439C64.0557 15.5203 67 18.4207 67 21.9785V27.7922C67 31.3629 64.0557 34.2633 60.4439 34.2633Z" fill="#F0BF5F"/>
<path d="M33.5 19.1555C32.9111 19.1555 32.3484 18.8977 31.9689 18.3949C31.3408 17.557 31.524 16.384 32.3615 15.7781C34.1543 14.4633 37.8707 11.0086 37.8707 8.70117C37.8707 6.20039 36.0256 4.3957 33.5 4.3957C31.0922 4.3957 29.1293 6.3293 29.1293 8.70117C29.1293 9.73242 28.2787 10.5703 27.2318 10.5703C26.1849 10.5703 25.3344 9.73242 25.3344 8.70117V8.53359C25.3344 8.48203 25.3343 8.43047 25.3474 8.37891C25.5045 4.07344 29.1031 0.644531 33.5 0.644531C38.1586 0.644531 41.6787 4.11211 41.6787 8.70117C41.6787 13.5223 35.3582 18.266 34.6254 18.7945C34.2851 19.0395 33.8926 19.1555 33.5 19.1555Z" fill="#F0BF5F"/>
<path d="M47.5412 61.2562H22.377C21.3301 61.2562 20.4795 60.4183 20.4795 59.3871V49.0875C20.4795 48.0562 21.3301 47.2183 22.377 47.2183H55.9424C56.9893 47.2183 57.8398 48.0562 57.8398 49.0875C57.8398 50.1187 56.9893 50.9566 55.9424 50.9566H24.2744V57.5179H47.5412C48.5881 57.5179 49.4387 58.3558 49.4387 59.3871C49.4387 60.4183 48.5881 61.2562 47.5412 61.2562Z" fill="#2D527C"/>
</svg>
